<?xml version="1.0" encoding="UTF-8"?>
<svg width="366px" height="64px" viewBox="0 0 366 64" version="1.1" xmlns="http://www.w3.org/2000/svg" xmlns:xlink="http://www.w3.org/1999/xlink">
    <!-- Generator: Sketch 40.2 (33826) - http://www.bohemiancoding.com/sketch -->
    <title>logo-horizontal-bg-blanco</title>
    <desc>Created with Sketch.</desc>
    <defs>
        <linearGradient x1="101.340898%" y1="82.4568482%" x2="40.8190709%" y2="34.1443845%" id="linearGradient-1">
            <stop stop-color="#689F38" stop-opacity="0.02" offset="0%"></stop>
            <stop stop-color="#1A237E" stop-opacity="0.2" offset="100%"></stop>
        </linearGradient>
    </defs>
    <g id="SVG" stroke="none" stroke-width="1" fill="none" fill-rule="evenodd">
        <g id="logo-horizontal-bg-blanco">
            <g id="basgrani" transform="translate(80.270270, 0.000000)" fill="#000000">
                <g id="I" transform="translate(272.592593, 0.000000)" fill-opacity="0.54">
                    <polyline id="Fill-12" points="12.4788148 45.2841481 0.359111111 45.2841481 0.359111111 43.4287407 2.68977778 43.4287407 2.68977778 13.7321481 0.359111111 13.7321481 0.359111111 11.8767407 12.4788148 11.8767407 12.4788148 13.7321481 10.1481481 13.7321481 10.1481481 43.4287407 12.4788148 43.4287407 12.4788148 45.2841481"></polyline>
                    <polyline id="Fill-13" points="11.8797037 5.73214815 6.41896296 10.9801481 0.958222222 5.73214815 6.41896296 0.484148148 11.8797037 5.73214815"></polyline>
                </g>
                <path d="M258.501926,45.2841481 L258.501926,43.4287407 L260.832593,43.4287407 L260.832593,28.5161481 C260.832593,25.7001481 259.92237,23.4394074 258.102519,21.7321481 C256.326519,19.9834074 253.951407,19.1081481 250.976593,19.1081481 C248.00237,19.1081481 245.605333,19.9834074 243.784296,21.7321481 C242.009481,23.4394074 241.121185,25.7001481 241.121185,28.5161481 L241.121185,43.4287407 L243.452444,43.4287407 L243.452444,45.2841481 L231.332148,45.2841481 L231.332148,43.4287407 L233.595852,43.4287407 L233.595852,28.5161481 C233.595852,23.7380741 235.239111,19.7908148 238.524444,16.6767407 C241.809185,13.5194074 245.959704,11.9401481 250.976593,11.9401481 C255.992889,11.9401481 260.143407,13.5194074 263.429333,16.6767407 C266.714667,19.7908148 268.356741,23.7380741 268.356741,28.5161481 L268.356741,43.4287407 L270.620444,43.4287407 L270.620444,45.2841481 L258.501926,45.2841481 Z" id="n" opacity="0.54"></path>
                <path d="M198.570074,45.2841481 C195.240296,45.2841481 192.465778,44.2174815 190.246519,42.0847407 C188.071111,39.9508148 186.983704,37.2847407 186.983704,34.0847407 C186.983704,30.8847407 188.071111,28.2174815 190.246519,26.0847407 C192.465778,23.9081481 195.240296,22.8201481 198.570074,22.8201481 L216.216889,22.8201481 C215.684148,20.3454815 214.018963,19.1081481 211.222519,19.1081481 L192.643556,19.1081481 L192.643556,21.6041481 L190.712889,21.6041481 L190.712889,11.9401481 L211.222519,11.9401481 C214.81837,11.9401481 217.815111,13.0927407 220.212148,15.3961481 C222.609185,17.7001481 223.808,20.6014815 223.808,24.1001481 L223.808,38.1161481 L227.070815,38.1161481 L227.070815,35.6207407 L228.935111,35.6207407 L228.935111,45.2841481 L198.570074,45.2841481 Z M216.34963,30.0527407 L198.570074,30.0527407 C195.817481,30.0527407 194.442074,31.3961481 194.442074,34.0847407 C194.442074,36.7721481 195.817481,38.1161481 198.570074,38.1161481 L216.34963,38.1161481 L216.34963,30.0527407 Z" id="a2" fill-opacity="0.54"></path>
                <path d="M184.519704,21.6041481 L182.655407,21.6041481 L182.655407,19.1081481 C179.902815,19.2788148 177.683556,20.2174815 175.997037,21.9247407 C174.308741,23.6308148 173.465481,25.8287407 173.465481,28.5161481 L173.465481,43.4287407 L175.796741,43.4287407 L175.796741,45.2841481 L163.743407,45.2841481 L163.743407,43.4287407 L166.007704,43.4287407 L166.007704,19.1081481 C166.007704,17.0601481 165.474963,15.2468148 164.408889,13.6687407 L162.145185,13.6687407 L162.145185,11.8121481 L171.867259,11.8121481 C172.267852,12.6654815 172.622222,13.6687407 172.933333,14.8201481 C175.863704,12.9001481 179.104,11.9401481 182.655407,11.9401481 L184.519704,11.9401481 L184.519704,21.6041481" id="r" fill-opacity="0.54"></path>
                <path d="M159.948444,21.6041481 L158.017185,21.6041481 L158.017185,19.1081481 L155.685926,19.1081481 C157.595259,21.8814815 158.549333,25.0388148 158.549333,28.5807407 C158.549333,33.3588148 156.907259,37.3700741 153.622519,40.6121481 C156.907259,43.0447407 158.549333,46.4568889 158.549333,50.8515556 C158.549333,54.5214815 157.284148,57.570963 154.75437,60.0035556 C152.224,62.4355556 149.071407,63.650963 145.29837,63.650963 L134.977185,63.650963 L134.977185,53.9235556 L136.907852,53.9235556 L136.907852,56.4195556 L145.29837,56.4195556 C147.073778,56.4195556 148.472889,55.906963 149.493926,54.8835556 C150.558815,53.9022222 151.090963,52.5582222 151.090963,50.8515556 C151.090963,49.3582222 150.581333,48.0562963 149.559704,46.946963 C148.538667,45.8376296 147.118222,45.2841481 145.29837,45.2841481 L138.172444,45.2841481 C133.200593,45.2841481 129.072593,43.7060741 125.787259,40.5487407 C122.502519,37.3481481 120.859259,33.3588148 120.859259,28.5807407 C120.859259,24.0574815 122.435556,20.1540741 125.586963,16.8687407 C128.738963,13.5828148 132.645926,11.9401481 137.306667,11.9401481 L159.948444,11.9401481 L159.948444,21.6041481 Z M151.090963,28.5807407 C151.090963,25.7641481 150.181926,23.4820741 148.360889,21.7321481 C146.541037,19.9834074 144.166519,19.1081481 141.236148,19.1081481 L138.172444,19.1081481 C135.243259,19.1081481 132.867556,19.9834074 131.047704,21.7321481 C129.271704,23.4820741 128.384593,25.7641481 128.384593,28.5807407 C128.384593,31.4394074 129.271704,33.7428148 131.047704,35.4921481 C132.867556,37.2420741 135.243259,38.1161481 138.172444,38.1161481 L141.236148,38.1161481 C144.166519,38.1161481 146.541037,37.2420741 148.360889,35.4921481 C150.181926,33.7428148 151.090963,31.4394074 151.090963,28.5807407 Z" id="g" fill-opacity="0.54"></path>
                <path d="M118.596741,35.1727407 C118.596741,38.0308148 117.59763,40.4420741 115.6,42.4041481 C113.60237,44.3241481 111.093333,45.2841481 108.074667,45.2841481 L87.0322963,45.2841481 L87.0322963,35.5561481 L88.8971852,35.5561481 L88.8971852,38.1161481 L108.074667,38.1161481 C110.117333,38.1161481 111.13837,37.1354074 111.13837,35.1727407 C111.13837,33.1668148 110.117333,32.1647407 108.074667,32.1647407 L97.5531852,32.1647407 C94.578963,32.1647407 92.0711111,31.2047407 90.029037,29.2841481 C88.0314074,27.3220741 87.0322963,24.9108148 87.0322963,22.0527407 C87.0322963,19.1514074 88.0314074,16.7401481 90.029037,14.8201481 C92.0711111,12.9001481 94.578963,11.9401481 97.5531852,11.9401481 L118.596741,11.9401481 L118.596741,21.6041481 L116.731852,21.6041481 L116.731852,19.1081481 L97.5531852,19.1081481 C95.5117037,19.1081481 94.4906667,20.0894815 94.4906667,22.0527407 C94.4906667,24.0154074 95.5117037,24.9967407 97.5531852,24.9967407 L108.074667,24.9967407 C111.093333,24.9967407 113.60237,25.9774815 115.6,27.9401481 C117.59763,29.8601481 118.596741,32.2714074 118.596741,35.1727407" id="s" fill-opacity="0.54"></path>
                <path d="M53.9277037,45.3724444 C50.5979259,45.3724444 47.8234074,44.3057778 45.6041481,42.173037 C43.4287407,40.0391111 42.3413333,37.373037 42.3413333,34.173037 C42.3413333,30.973037 43.4287407,28.3057778 45.6041481,26.173037 C47.8234074,23.9964444 50.5979259,22.9084444 53.9277037,22.9084444 L71.5745185,22.9084444 C71.0417778,20.4337778 69.3765926,19.1964444 66.5801481,19.1964444 L48.0011852,19.1964444 L48.0011852,21.6924444 L46.0705185,21.6924444 L46.0705185,12.0284444 L66.5801481,12.0284444 C70.176,12.0284444 73.1727407,13.181037 75.5697778,15.4844444 C77.9668148,17.7884444 79.1656296,20.6897778 79.1656296,24.1884444 L79.1656296,38.2044444 L82.4284444,38.2044444 L82.4284444,35.709037 L84.2927407,35.709037 L84.2927407,45.3724444 L53.9277037,45.3724444 Z M71.7072593,30.141037 L53.9277037,30.141037 C51.1751111,30.141037 49.7997037,31.4844444 49.7997037,34.173037 C49.7997037,36.8604444 51.1751111,38.2044444 53.9277037,38.2044444 L71.7072593,38.2044444 L71.7072593,30.141037 Z" id="a1" fill-opacity="0.54"></path>
                <path d="M40.1528889,28.5807407 C40.1528889,33.3588148 38.5108148,37.3481481 35.2260741,40.5487407 C31.9407407,43.7060741 27.8115556,45.2841481 22.8397037,45.2841481 L19.776,45.2841481 C14.8041481,45.2841481 10.6761481,43.7060741 7.39081481,40.5487407 C4.10607407,37.3914074 2.46281481,33.4020741 2.46281481,28.5807407 L2.46281481,4.64414815 L0.0657777778,4.64414815 L0.0657777778,2.78874074 L12.1848889,2.78874074 L12.1848889,4.64414815 L9.92118519,4.64414815 L9.92118519,11.9401481 L22.8397037,11.9401481 C27.8115556,11.9401481 31.9407407,13.5194074 35.2260741,16.6767407 C38.5108148,19.8334815 40.1528889,23.8014815 40.1528889,28.5807407 Z M32.6951111,28.5807407 C32.6951111,25.7641481 31.7854815,23.4820741 29.9644444,21.7321481 C28.1445926,19.9834074 25.7700741,19.1081481 22.8397037,19.1081481 L9.92118519,19.1081481 L9.92118519,28.5807407 C9.92118519,31.4394074 10.8314074,33.7428148 12.6512593,35.4921481 C14.4711111,37.2420741 16.8468148,38.1161481 19.776,38.1161481 L22.8397037,38.1161481 C25.7700741,38.1161481 28.1445926,37.2420741 29.9644444,35.4921481 C31.7854815,33.7428148 32.6951111,31.4394074 32.6951111,28.5807407 Z" id="b" fill-opacity="0.54"></path>
            </g>
            <g id="Icon">
                <path d="M59.2584685,0 L31.9946622,0 C12.1592553,0 -3.44828592,18.0632444 0.661041404,38.6166079 C3.18985822,51.2648316 13.2656127,61.1067307 25.9492095,63.4387469 C45.7055909,67.0751112 63.0121809,52.5691797 63.9604872,33.5968442 L64,4.74308388 C64,2.13438775 61.8663108,0 59.2584685,0 Z" id="bg" fill="#689F38"></path>
                <path d="M63.9678944,28.1878439 L48.1402344,16 L42.1867187,32 L26.3943359,22.7121094 L16.1742187,32 L27.7302849,45.1870015 L16.1742187,48 L34.4792159,63.9081773 C50.4510768,62.702826 63.1519268,49.7733479 63.9604872,33.5968442 L63.9678944,28.1878439 Z" id="Combined-Shape" fill="url(#linearGradient-1)"></path>
                <rect id="boca" fill="#F5F5F5" x="16" y="42" width="32" height="6"></rect>
                <polygon id="ojo-de" fill="#F5F5F5" points="44.2709125 32 42.1603832 32 42.1603832 25.3969915 37.6 25.3969915 37.6 16 48.0706503 16 48.0706503 25.3969915"></polygon>
                <polygon id="ojo-iz" fill="#F5F5F5" points="19.7996337 16 21.909863 16 21.909863 22.6029796 26.4695979 22.6029796 26.4695979 32 16 32 16 22.6029796"></polygon>
            </g>
        </g>
    </g>
</svg>